/* XPM */
static char *_61acc89a7684bcebcbe8aa25eba246eoLAa7RjMpLXWAw24[] = {
/* columns rows colors chars-per-pixel */
"32 32 7 1 ",
"  c #D8B174",
". c #3E8948",
"X c #265C42",
"o c #BE4A2F",
"O c #F77622",
"+ c #FEAE34",
"@ c white",
/* pixels */
"                                ",
"                                ",
"              . .               ",
"            X..X.X.             ",
"            X..X.X.             ",
"            XX.XXX.             ",
"             X.XX..             ",
"             X..X.              ",
"              X.X               ",
"              X.X               ",
"              XXX               ",
"            oooOOOO             ",
"           ooOo+oOOO            ",
"           oooO+OOOO            ",
"           ooOOOOOOO            ",
"           oooOO++OO            ",
"           ooOOOOOOO            ",
"           oooO+OOOo            ",
"           ooOO+OOoO            ",
"           ooOOOOOOO            ",
"           ooOOOOOOO            ",
"            oooO+OO             ",
"            oOOO+oO             ",
"            ooOOOOO             ",
"            ooOOOOO             ",
"             oo+OO              ",
"             oOOOO              ",
"             ooOOO              ",
"              ooO               ",
"              oOO               ",
"               o                ",
"                                "
};
