/* XPM */
static char *_15f610a848045d3c07695a019fd0251V3CYZDVqk0RrsYKC[] = {
/* columns rows colors chars-per-pixel */
"32 32 6 1 ",
"  c #D8B174",
". c black",
"X c #4F2C14",
"o c #885B39",
"O c #D78244",
"+ c white",
/* pixels */
"                                ",
"                                ",
"                                ",
"             ....               ",
"             .XX.               ",
"      ........Xo.               ",
"     ..ooOOOOOOo..              ",
"     .oooOO..OOOO.              ",
"     .ooOOOOOOOOO.              ",
"     .oOOOOOOOOOO.              ",
"     .oOOOOOOOOOO..             ",
"     .......OOOOOO.             ",
"           .OOOOOO..            ",
"          ..OOOOOOO.            ",
"          .OOOOOOOO..           ",
"          .OOOOOOOOO..          ",
"         ..XOOOOOOOOO..         ",
"         .XXOOOOOOOOOO.         ",
"         .XXXOOOOoOOoO..        ",
"         .XX....OOoOOoO.        ",
"         .XX.  ..OOoOOO.        ",
"         ....   ..OOoOO.        ",
"                 .OOOO..        ",
"                 ..OOX.         ",
"                  ..XX.         ",
"                   .XX.         ",
"                   .XX.         ",
"                   .XX.         ",
"                   ....         ",
"                                ",
"                                ",
"                                "
};
