/* XPM */
static char *ed38ccb8a8af4debf3dcd0acdd9c07a0iFnt9bGCB7I1M0Gm[] = {
/* columns rows colors chars-per-pixel */
"32 32 6 1 ",
"  c #D8B174",
". c black",
"X c #4F2C14",
"o c #885B39",
"O c #D78244",
"+ c white",
/* pixels */
"                                ",
"                                ",
"                                ",
"                                ",
"                                ",
"                                ",
"                                ",
"            ....                ",
"            .XX.                ",
"     ........Xo.                ",
"    ..ooOOOOOOo..               ",
"    .oooOO..OOOO..              ",
"    .ooOOOOOOOOOO.              ",
"    .oOOOOOOOOOOO..             ",
"    .oOOOOOOOOOOOO......        ",
"    ........OOOOOOOOOOO..       ",
"           .OOOOOOOOOOOO.       ",
"           .OOOOOOOooOOO.       ",
"           .OOOOOooOOOOO.       ",
"           ..OOOOOOOOooO.       ",
"            .OOOOOOOOOOO..      ",
"            .XOO...OOOOOO.      ",
"        +   .XX.. ..OOOOX..     ",
"            .XX..  ...OXXX.     ",
"            ..XX.    ..XXX.     ",
"       +     ..X.     .XX..     ",
"              ...     .XX.      ",
"         +++          ....      ",
"                                ",
"                                ",
"                                ",
"                                "
};
