/* XPM */
static char *_8bf50f02f054ca1b7679e406d5359dbl13TTQtVxCj9Eb34[] = {
/* columns rows colors chars-per-pixel */
"32 32 6 1 ",
"  c #D8B174",
". c black",
"X c #4F2C14",
"o c #885B39",
"O c #D78244",
"+ c white",
/* pixels */
"                                ",
"                                ",
"                                ",
"                                ",
"             ....               ",
"             .XX.               ",
"      ........Xo.               ",
"     ..ooOOOOOOo..              ",
"     .oooOO..OOOO.              ",
"     .ooOOOOOOOOO.              ",
"     .oOOOOOOOOOO.              ",
"     .oOOOOOOOOOO..             ",
"     .......OOOOOO..            ",
"           .OOOOOOO...          ",
"           .OOOOOOOOO...        ",
"           .OOOOOOOOOOO..       ",
"           .OOOOOOOOOOOO.       ",
"           ..OOOOOoOOoOO.       ",
"            .OOOOOOoOOoO.       ",
"           ..XOOOOOOoOOO.       ",
"          ..XXX....OOoOO.       ",
"          .XXX..  .OOOOO.       ",
"          ..XX.   ..OOOX.       ",
"    +      ....    ..OXX.       ",
"                    ..XX.       ",
"                     .XX.       ",
"                     .XX.       ",
"                     ....       ",
"                                ",
"                                ",
"                                ",
"                                "
};
