/* XPM */
static char *e3fb46b575c8445782991ad9bf325b23TmYUFgX50ivEEtRa[] = {
/* columns rows colors chars-per-pixel */
"32 32 6 1 ",
"  c #D8B174",
". c black",
"X c #4F2C14",
"o c #885B39",
"O c #D78244",
"+ c #D8B174",
/* pixels */
"                                ",
"                                ",
"                                ",
"                                ",
"                                ",
"                                ",
"                                ",
"                                ",
"                                ",
"                                ",
"                                ",
"           ....                 ",
"           .XX.                 ",
"    ........Xo.                 ",
"   ..ooOOOOOOo..                ",
"   .oooOO..OOOO..               ",
"   .ooOOOOOOOOOO.........       ",
"   .oOOOOOOOOOOOOOOOOOOO..      ",
"   .oOOOOOOOOOOOOOOOOOOOO.      ",
"   .........OOOOOOOOooOOO.      ",
"          +..OOOOOooOOOOO.      ",
"          ++.OOOOOOOOOooO.      ",
"          ++.OOOOOOOOOOOO..     ",
"         +++.XOOO...OOOOOO.     ",
"         +++.XXX.. ..OOOOX..    ",
"         +++.XX..   ...OXXX.    ",
"         ++..X..      ..XXX.    ",
"          +..X.        .XX..    ",
"          +....        .XX.     ",
"                       ....     ",
"                                ",
"                                "
};
