/* XPM */
static char *_84367b6281c4fd2b319124a986fbe8dXECHbPo7FMjQ7uBh[] = {
/* columns rows colors chars-per-pixel */
"32 32 6 1 ",
"  c #D8B174",
". c black",
"X c #4F2C14",
"o c #885B39",
"O c #D78244",
"+ c white",
/* pixels */
"                                ",
"                                ",
"                                ",
"                                ",
"                                ",
"           ....                 ",
"           .XX.                 ",
"    ........Xo.                 ",
"   ..ooOOOOOOo..                ",
"   .oooOO..OOOO.                ",
"   .ooOOOOOOOOO.                ",
"   .oOOOOOOOOOO..               ",
"   .oOOOOOOOOOOO..              ",
"   .......OOOOOOO...            ",
"          .OOOOOOOO..           ",
"         +.OOOOOOOOO..          ",
"        + .OOOOOOOOOO..         ",
"       ++..XOOOOOOOOOO..        ",
"      +...XXOOOOOOOOOOO..       ",
"      +.XXXXXOOOOOoOOoO..       ",
"      +XX.......OOOoOOoO.       ",
"      +++.     ..OOOoOOO.       ",
"                ...OOoOO.       ",
"                  .OOOO.        ",
"                  ..OOX.        ",
"                   ..XX.        ",
"                    .XX.        ",
"                    .XX.        ",
"                    .XX.        ",
"                    ....        ",
"                                ",
"                                "
};
