/* XPM */
static char *_789e40a562f4898a7ec795520b8abc2y5GBR8tlgmGlc68K[] = {
/* columns rows colors chars-per-pixel */
"32 32 6 1 ",
"  c #D8B174",
". c #D8B174",
"X c #D8B174",
"o c #2D1C0D",
"O c #4F340E",
"+ c white",
/* pixels */
" .XoX..XooooooooooooooooooXXXXoo",
".XooXXXoooooooooooooooooooXXXXoo",
"XXooooooooooooooooooooooooXXXooo",
"Xooooooooooooooooooooooooooooooo",
"ooXXXooooooooooooooooooooooooooo",
"oXXXXooooooooooooooooooooooooooo",
"XXXXXooooooooooooooooooooooooooo",
"XXXXXooooooooooooooooooooooooooo",
"XXXXoooooooooooooooooooooooooooo",
"XXXXoooooooooooooooooooooooooooo",
"oXXooooooooooooooooooooooooooooX",
".oooooooooooooooooooooooooooooX.",
" ooooooooooooooooooooooooooooo..",
" Xoooooooooooooooooooooooooooo..",
".Xoooooooooooooooooooooooooooo..",
"XXooooooooooooooooooooooooooooXX",
"XoooooooooooooooooooooooooooooXX",
"oooooooooooooooooooooooooooooooX",
"oooooooooooooooooooooooooooooooo",
"oooooooooooooooooooooooooooooooo",
"oooooooooooooooooooooooooooooooo",
"oooooooooooooooooooooooooooooooo",
"oooooooooooooooooooooooooooooooo",
"oooooooooooooooooooooooooooooooo",
"oooooooooooooooooooooooooooooooo",
"oooooooooooooooooooooooooooooooo",
"oooooooooooooooooooooooooooooooo",
"oooooooooooooooooooooooooooooooo",
"XXXoooooooooooooooooooooXXXooooo",
"XXXXoooooooooooooooooooXXXXXoooo",
"XXXXoooooooooXXXooooooXXXXXXoooo",
"OXooooXXooooXXXXXoooooXXXXXoooo."
};
