/* XPM */
static char *d887c7e7992443b1f741652444649755RkqjXQB00lNbWXEM[] = {
/* columns rows colors chars-per-pixel */
"32 32 6 1 ",
"  c #D8B174",
". c #3A97EA",
"X c #4AA5F7",
"o c white",
"O c #4AA5F7",
"+ c #458DCE",
/* pixels */
"                                ",
"                                ",
"                                ",
"                                ",
"                                ",
"                                ",
"                                ",
"                                ",
"                                ",
"                                ",
"                                ",
"            .......             ",
"          ...........           ",
"         ...XXXXXXXo..          ",
"        ..XXXXXXXXXXo..         ",
"       ..XXXXXXXXXXXXX..        ",
"       ..XXXXXXOXXXXXO..        ",
"      ..XXXXXXXOXXXXXOX..       ",
"      ..XXXXXXXOXXXXXOX..       ",
"      ..XXXXXXXXXXXXXXX..       ",
"      ..XXXXXXXXXXXXXXX..       ",
"      +.XXXXXXXXXXXXXXX..       ",
"      +++XXXXXXXXXXXXX...       ",
"       +++..............        ",
"         +++++++++++++          ",
"                                ",
"                                ",
"                                ",
"                                ",
"                                ",
"                                ",
"                                "
};
