/* XPM */
static char *e286f6f82fa74ad5eccf71a01729b3f0YXhq2nZ3rDGYqasH[] = {
/* columns rows colors chars-per-pixel */
"32 32 6 1 ",
"  c #D8B174",
". c #3A97EA",
"X c #4AA5F7",
"o c white",
"O c #4AA5F7",
"+ c #458DCE",
/* pixels */
"                                ",
"                                ",
"                                ",
"                                ",
"                                ",
"                                ",
"                                ",
"                                ",
"                                ",
"                                ",
"                                ",
"                                ",
"            .......             ",
"          ...........           ",
"         ...XXXXXXXo..          ",
"        ..XXXXXXXXXXo..         ",
"       ..XXXXXXXXXXXXX..        ",
"      ..XXXXXXXOXXXXXOX..       ",
"      ..XXXXXXXOXXXXXOX..       ",
"      ..XXXXXXXOXXXXXOX..       ",
"      ..XXXXXXXXXXXXXXX..       ",
"      ..XXXXXXXXXXXXXXX..       ",
"      +..XXXXXXXXXXXXX...       ",
"      +++................       ",
"        +++++++++++++++         ",
"                                ",
"                                ",
"                                ",
"                                ",
"                                ",
"                                ",
"                                "
};
