/* XPM */
static char *a8378104c6044396f3c64f87b5ddb527ckiUW2jGnUOxv0m0[] = {
/* columns rows colors chars-per-pixel */
"32 32 6 1 ",
"  c #D8B174",
". c #3A97EA",
"X c #4AA5F7",
"o c white",
"O c #4AA5F7",
"+ c #458DCE",
/* pixels */
"                                ",
"                                ",
"                                ",
"                                ",
"                                ",
"                                ",
"                                ",
"                                ",
"                                ",
"                                ",
"            .......             ",
"          ...........           ",
"         ...XXXXXXXo..          ",
"        ..XXXXXXXXXXo..         ",
"       ..XXXXXXXXXXXXX..        ",
"       ..XXXXXXXXXXXXX..        ",
"      ..XXXXXXXOXXXXXOX..       ",
"      ..XXXXXXXOXXXXXOX..       ",
"      ..XXXXXXXOXXXXXOX..       ",
"      ..XXXXXXXXXXXXXXX..       ",
"      ..XXXXXXXXXXXXXXX..       ",
"      +.XXXXXXXXXXXXXXX..       ",
"      ++.XXXXXXXXXXXXX...       ",
"       ++...............        ",
"        +++++++++++++++         ",
"                                ",
"                                ",
"                                ",
"                                ",
"                                ",
"                                ",
"                                "
};
