/* XPM */
static char *_320061f47cf4b08f7433e2c1f8db72ad2LTrY68xaoD26nq[] = {
/* columns rows colors chars-per-pixel */
"32 32 8 1 ",
"  c #D8B174",
". c #5B461A",
"X c #8D6F89",
"o c gray93",
"O c black",
"+ c #CDCDCD",
"@ c #A4A4A4",
"# c white",
/* pixels */
"                                ",
"                                ",
"                                ",
"                                ",
"                                ",
"                                ",
"                                ",
"                                ",
"                . .             ",
"               .X.X.            ",
"               .X..X.           ",
"               .XX.X.           ",
"                .X.X.           ",
"                .X...           ",
"                 .X....         ",
"          ...    .......        ",
"         ......  ....oO++       ",
"     +  ......++.....OO++       ",
"    +@@@....+++++....++++       ",
"    @@@....+++++++..++++        ",
"     @@...+++++++++++++         ",
"       @.++@@+++@++++           ",
"        +++++@++++++++          ",
"         +++++@++++@@+++        ",
"                                ",
"                                ",
"                                ",
"                                ",
"                                ",
"                                ",
"                                ",
"                                "
};
