/* XPM */
static char *f0b0b2ce4c4b45f7d6b91d903a9d145bH1S8cRWwqkss8Gis[] = {
/* columns rows colors chars-per-pixel */
"32 32 65 1 ",
"  c #3D4449",
". c #474D51",
"X c #4A5155",
"o c #4E5759",
"O c #51575B",
"+ c #535A5E",
"@ c #555E61",
"# c #576061",
"$ c #5C6265",
"% c #5F6768",
"& c #606769",
"* c #636A6B",
"= c #696E6F",
"- c #696E71",
"; c #6D7575",
": c #707677",
"> c #767B7A",
", c #787E7D",
"< c #7A817F",
"1 c #7E8383",
"2 c #818686",
"3 c #838887",
"4 c #858A89",
"5 c #898D8D",
"6 c #8B908E",
"7 c #8E9291",
"8 c #919694",
"9 c #949A96",
"0 c #929798",
"q c #969C99",
"w c #999F9A",
"e c #9CA39D",
"r c #A0A79F",
"t c #9FA6A0",
"y c #A0A7A1",
"u c #A0A8A1",
"i c #A3A9A3",
"p c #A4A9A3",
"a c #A5AAA5",
"s c #A7AEA6",
"d c #A8ADA7",
"f c #A7ABA8",
"g c #A7ADA9",
"h c #A9AEAA",
"j c #ABB2A9",
"k c #ACB3AB",
"l c #ABB1AC",
"z c #AEB3AD",
"x c #AEB4AE",
"c c #B0B5AF",
"v c #B1B6B0",
"b c #B3B9B1",
"n c #B5BBB3",
"m c #B4BAB4",
"M c #B7BDB4",
"N c #B9BFB6",
"B c #B9BDB8",
"V c #BAC1B6",
"C c #BBC1B8",
"Z c #BEC3BA",
"A c #BEC4BB",
"S c #C0C6BB",
"D c #C1C7BD",
"F c #C3C8BE",
"G c #C4CABE",
/* pixels */
"GDDZAvnNbnAADCe*DFDSSAAnAnNbxNj%",
"vVAAZAVbCAnNVM,%xDDDDVZCZZVkba,%",
"vh8e7744327793,=za756q56675466>*",
"lhqq718544w987,*ja6qea9w3613ew>%",
"zl8715ee78eu89<*ha797ee96512qw>$",
"hh1578tye79qqu<&za99e7w7866669>$",
"hx3eqeewu8q6aw,#laeeew76777959,#",
"zx4eeuwwuq6q9e<#hawewqq8889727>@",
"hh657eeq4epqqu1*huw877677e5568,#",
"yg184qy99uw8pe<%haeew88e675596,$",
"fh26e85te8tahy,#faqwe9e67977e7,$",
"lzqeq5eea7uaeq,%xhwqww5qeeeee8>#",
"ma7uet8pyuespd,%xhww984wdsey86>@",
"a742waauuaejxj,*x0q7575weeeq75,+",
"7;=;;;;;;;;;;;-*q>:::>;;;::>:;;@",
"*%*$##$@@@@@+@%X#$#&$@@+@@@@@@@.",
"DDDFDAZDDBabgNx*DDDZCNZDZFGMZNN+",
"vAZCZCZAZNbcbN2&xZDZZZZZZCNVVV<+",
"zu34q4598e47561%xa557ew9e5759d<#",
"hh7758esak58eh3$lh5644e9eeq549<#",
"xheeq9pjpe7euj1$zlqe8679uwu458,@",
"hhq714ydp7qw7q1*jlqe77e17ee35q,O",
"zh9757q98qq7wa1*vjyqa5753794qq>@",
"xzp899e98e7udj3*xj37pq68785854,@",
"vje8ausq78esju2%lh96te1q774q47,O",
"lhe8dhupw9qepe1*lhyye744538p97,O",
"zhe8wetauweepu1*faeq5547578u9e,+",
"vh9999aee8reaq1*hat75q982qq797,o",
"haq888adew67581*lw487697teeaa8,+",
"cq9ee79w8y648e1$hq4e8647wuda98>+",
"0;;;;;;;;;;;;;;*0;;--==-;-;--=;o",
"=*@@@@@@+@#####+*#@+@+++++++O#+ "
};
